<?xml version="1.0" standalone="no"?>
<!DOCTYPE svg PUBLIC "-//W3C//DTD SVG 20010904//EN"
 "http://www.w3.org/TR/2001/REC-SVG-20010904/DTD/svg10.dtd">
<svg version="1.0" xmlns="http://www.w3.org/2000/svg"
 width="512.000000pt" height="512.000000pt" viewBox="0 0 512.000000 512.000000"
 preserveAspectRatio="xMidYMid meet">

<g transform="translate(0.000000,512.000000) scale(0.100000,-0.100000)"
fill="#000000" stroke="none">
<path d="M2330 5110 c-494 -48 -950 -230 -1350 -538 -195 -150 -448 -432 -594
-662 -63 -99 -186 -351 -230 -471 -49 -134 -102 -340 -128 -499 -31 -195 -31
-565 0 -760 45 -276 116 -498 237 -745 132 -269 269 -460 489 -681 221 -220
412 -357 681 -489 247 -121 469 -192 745 -237 195 -31 565 -31 760 0 276 45
498 116 745 237 269 132 460 269 681 489 220 221 357 412 489 681 88 179 132
296 180 476 63 240 78 371 78 649 0 278 -15 409 -78 649 -48 180 -92 297 -180
476 -132 269 -269 460 -489 681 -221 220 -412 357 -681 489 -246 121 -474 193
-740 235 -147 23 -475 34 -615 20z m471 -110 c1253 -126 2209 -1182 2209
-2440 0 -1353 -1097 -2450 -2450 -2450 -1446 0 -2583 1255 -2440 2691 116
1151 1036 2079 2180 2198 122 12 381 13 501 1z"/>
<path d="M2305 4685 c-811 -99 -1508 -664 -1769 -1435 -55 -164 -82 -281 -101
-448 -116 -990 490 -1946 1435 -2266 164 -55 281 -82 448 -101 990 -116 1946
490 2266 1435 55 164 82 281 101 448 116 990 -490 1946 -1435 2266 -74 25
-177 54 -228 66 -220 48 -494 62 -717 35z m483 -106 c835 -90 1546 -719 1748
-1544 72 -297 72 -653 0 -950 -199 -815 -884 -1431 -1714 -1540 -145 -19 -379
-19 -524 0 -444 59 -856 263 -1174 582 -795 799 -794 2071 2 2867 321 321 757
536 1189 584 114 13 359 14 473 1z"/>
<path d="M1733 3575 c-27 -16 -49 -40 -62 -68 -21 -43 -21 -51 -21 -947 0
-897 0 -904 21 -947 14 -29 35 -52 63 -68 42 -25 46 -25 271 -25 225 0 229 0
271 25 28 16 49 39 63 68 21 43 21 50 21 949 l0 905 -23 43 c-16 30 -37 51
-67 67 -41 22 -52 23 -269 23 -223 0 -227 -1 -268 -25z m499 -102 c17 -15 18
-57 18 -911 0 -819 -1 -897 -17 -914 -15 -16 -35 -18 -226 -18 -182 0 -213 2
-229 17 -17 15 -18 57 -18 911 0 819 1 897 17 914 15 16 35 18 226 18 182 0
213 -2 229 -17z"/>
<path d="M2850 3577 c-30 -16 -51 -37 -67 -67 l-23 -43 0 -905 c0 -899 0 -906
21 -949 14 -29 35 -52 63 -68 42 -25 46 -25 271 -25 225 0 229 0 271 25 28 16
49 39 63 68 21 43 21 50 21 947 0 897 0 904 -21 947 -14 29 -35 52 -63 68 -42
25 -46 25 -268 25 -215 0 -227 -1 -268 -23z m492 -104 c17 -15 18 -57 18 -911
0 -819 -1 -897 -17 -914 -15 -16 -35 -18 -226 -18 -182 0 -213 2 -229 17 -17
15 -18 57 -18 911 0 819 1 897 17 914 15 16 35 18 226 18 182 0 213 -2 229
-17z"/>
</g>
</svg>
